<svg width="32" height="32" viewBox="0 0 32 32" fill="none" xmlns="http://www.w3.org/2000/svg">
<path fill-rule="evenodd" clip-rule="evenodd" d="M15.354 3.22087C15.7508 2.90164 16.3241 2.93158 16.6855 3.29042C17.9519 4.548 19.2474 5.42754 20.5364 6.27786C20.6172 6.33117 20.6982 6.3845 20.7793 6.43791C21.971 7.22234 23.1909 8.02534 24.2493 9.08374C26.5271 11.3616 27.6663 14.3491 27.6663 17.3333C27.6663 20.3175 26.5271 23.305 24.2493 25.5829C19.6931 30.139 12.3062 30.139 7.75009 25.5829C5.47224 23.305 4.33301 20.3175 4.33301 17.3333C4.333 14.3491 5.47223 11.3616 7.7501 9.08374C7.98817 8.84567 8.33005 8.74338 8.65976 8.81158C8.98752 8.87937 9.28248 9.15825 9.40758 9.46841C9.4284 9.51338 9.4635 9.5857 9.51451 9.67964C9.61672 9.86785 9.78153 10.1405 10.0215 10.4529C10.2846 10.7954 10.6363 11.1835 11.0937 11.5607C11.3779 8.90754 12.3988 5.59845 15.354 3.22087ZM15.9596 5.35476C17.1536 6.42732 18.3447 7.22805 19.4351 7.94731C19.5012 7.99096 19.5669 8.03424 19.6321 8.07719C20.8669 8.89094 21.9259 9.58883 22.835 10.498C24.7228 12.3857 25.6663 14.8579 25.6663 17.3333C25.6663 19.8088 24.7228 22.281 22.835 24.1687C19.06 27.9438 12.9394 27.9438 9.16431 24.1687C7.27658 22.281 6.33301 19.8088 6.33301 17.3333C6.333 15.2706 6.98814 13.2102 8.29876 11.4883C8.34223 11.5482 8.38778 11.6092 8.43545 11.6713C9.06034 12.4847 10.0577 13.4803 11.5525 14.2277C11.8625 14.3827 12.2306 14.3661 12.5255 14.1839C12.8203 14.0017 12.9997 13.6799 12.9997 13.3333C12.9997 10.9836 13.5465 7.7196 15.9596 5.35476ZM15.9596 5.35476C15.7317 5.15005 16.187 5.58061 15.9596 5.35476C15.7299 5.53958 16.1622 5.1562 15.9596 5.35476ZM15.0718 14.3463C15.2098 13.9384 15.5933 13.6646 16.0239 13.6667C17.2939 13.6728 18.5653 14.1612 19.5352 15.1311C20.5113 16.1072 20.9997 17.3886 20.9997 18.6667C20.9997 19.9447 20.5113 21.226 19.5352 22.2021C17.5826 24.1548 14.4168 24.1548 12.4641 22.2021C11.488 21.226 10.9997 19.9447 10.9997 18.6667C10.9997 18.1144 11.4474 17.6667 11.9996 17.6667L13.9488 17.6666L15.0718 14.3463ZM16.7081 15.7508L15.6136 18.987C15.4762 19.3932 15.0951 19.6666 14.6663 19.6666L13.1702 19.6666C13.3146 20.0761 13.5506 20.4602 13.8784 20.7879C15.0499 21.9595 16.9494 21.9595 18.121 20.7879C18.707 20.202 18.9997 19.4359 18.9997 18.6666C18.9997 17.8973 18.707 17.1313 18.121 16.5453C17.7164 16.1407 17.2261 15.876 16.7081 15.7508Z" fill="#7749F8"/>
</svg>
