<svg width="32" height="32" viewBox="0 0 32 32" fill="none" xmlns="http://www.w3.org/2000/svg">
<path fill-rule="evenodd" clip-rule="evenodd" d="M18.4645 9.13113C18.4645 9.13114 18.4645 9.13114 18.4645 9.13115L16.7072 10.8886C16.5197 11.0761 16.2653 11.1815 16.0001 11.1815C15.7349 11.1815 15.4805 11.0761 15.293 10.8886L13.5355 9.13115C11.5829 7.17853 8.41709 7.17853 6.46447 9.13115C4.51184 11.0838 4.51184 14.2496 6.46447 16.2022L16.0001 25.7378L25.5355 16.2022L26.2426 16.9093L25.5355 16.2022C27.4882 14.2496 27.4882 11.0838 25.5355 9.13115C23.5829 7.17854 20.4171 7.17853 18.4645 9.13113ZM17.0503 7.71694C19.7839 4.98327 24.2161 4.98327 26.9497 7.71694C29.6834 10.4506 29.6834 14.8828 26.9497 17.6164L16.7072 27.8591C16.5196 28.0467 16.2653 28.152 16.0001 28.152C15.7349 28.152 15.4805 28.0467 15.293 27.8591L5.05025 17.6164C2.31658 14.8828 2.31658 10.4506 5.05025 7.71694C7.78392 4.98327 12.2161 4.98327 14.9497 7.71694L16 8.76723L17.0502 7.71697L17.0503 7.71694Z" fill="white"/>
</svg>
