<svg width="32" height="32" viewBox="0 0 32 32" fill="none" xmlns="http://www.w3.org/2000/svg">
<path fill-rule="evenodd" clip-rule="evenodd" d="M10.9997 5.33333C10.9997 4.04467 12.0443 3 13.333 3H18.6663C19.955 3 20.9997 4.04467 20.9997 5.33333V8.33333H25.3227C25.3289 8.33328 25.3351 8.33328 25.3413 8.33333H26.6663C27.2186 8.33333 27.6663 8.78105 27.6663 9.33333C27.6663 9.88562 27.2186 10.3333 26.6663 10.3333H26.2641L25.174 25.5946C25.037 27.5134 23.4404 29 21.5167 29H10.4827C8.55898 29 6.96237 27.5134 6.82531 25.5946L5.73522 10.3333H5.33301C4.78072 10.3333 4.33301 9.88562 4.33301 9.33333C4.33301 8.78105 4.78072 8.33333 5.33301 8.33333H6.65808C6.66429 8.33328 6.67048 8.33328 6.67667 8.33333H10.9997V5.33333ZM7.74032 10.3333L8.82023 25.4521C8.88253 26.3243 9.60826 27 10.4827 27H21.5167C22.3911 27 23.1168 26.3243 23.1791 25.4521L24.259 10.3333H7.74032ZM18.9997 8.33333H12.9997V5.33333C12.9997 5.14924 13.1489 5 13.333 5H18.6663C18.8504 5 18.9997 5.14924 18.9997 5.33333V8.33333ZM13.333 13.6667C13.8853 13.6667 14.333 14.1144 14.333 14.6667V22.6667C14.333 23.219 13.8853 23.6667 13.333 23.6667C12.7807 23.6667 12.333 23.219 12.333 22.6667V14.6667C12.333 14.1144 12.7807 13.6667 13.333 13.6667ZM18.6663 13.6667C19.2186 13.6667 19.6663 14.1144 19.6663 14.6667V22.6667C19.6663 23.219 19.2186 23.6667 18.6663 23.6667C18.1141 23.6667 17.6663 23.219 17.6663 22.6667V14.6667C17.6663 14.1144 18.1141 13.6667 18.6663 13.6667Z" fill="white"/>
</svg>
